<mxfile host="app.diagrams.net" agent="Mozilla/5.0 (Windows NT 10.0; Win64; x64) AppleWebKit/537.36 (KHTML, like Gecko) Chrome/135.0.0.0 Safari/537.36" version="26.2.14">
  <diagram name="Page-1" id="2YBvvXClWsGukQMizWep">
    <mxGraphModel dx="1507" dy="722" grid="1" gridSize="10" guides="1" tooltips="1" connect="1" arrows="1" fold="1" page="1" pageScale="1" pageWidth="1100" pageHeight="850" math="0" shadow="0">
      <root>
        <mxCell id="0" />
        <mxCell id="1" parent="0" />
        <mxCell id="1x29o_3ZwKhWgOv2N2SG-2" value="前端组件" style="shape=umlLifeline;perimeter=lifelinePerimeter;whiteSpace=wrap;html=1;container=1;dropTarget=0;collapsible=0;recursiveResize=0;outlineConnect=0;portConstraint=eastwest;newEdgeStyle={&quot;curved&quot;:0,&quot;rounded&quot;:0};fontFamily=宋体;fontSize=14;" parent="1" vertex="1">
          <mxGeometry x="30" y="50" width="80" height="460" as="geometry" />
        </mxCell>
        <mxCell id="1x29o_3ZwKhWgOv2N2SG-4" value="" style="html=1;points=[[0,0,0,0,5],[0,1,0,0,-5],[1,0,0,0,5],[1,1,0,0,-5]];perimeter=orthogonalPerimeter;outlineConnect=0;targetShapes=umlLifeline;portConstraint=eastwest;newEdgeStyle={&quot;curved&quot;:0,&quot;rounded&quot;:0};fontFamily=宋体;fontSize=14;" parent="1x29o_3ZwKhWgOv2N2SG-2" vertex="1">
          <mxGeometry x="35" y="50" width="10" height="380" as="geometry" />
        </mxCell>
        <mxCell id="1x29o_3ZwKhWgOv2N2SG-3" value="Controller" style="shape=umlLifeline;perimeter=lifelinePerimeter;whiteSpace=wrap;html=1;container=1;dropTarget=0;collapsible=0;recursiveResize=0;outlineConnect=0;portConstraint=eastwest;newEdgeStyle={&quot;curved&quot;:0,&quot;rounded&quot;:0};fontFamily=宋体;fontSize=14;" parent="1" vertex="1">
          <mxGeometry x="160" y="50" width="80" height="460" as="geometry" />
        </mxCell>
        <mxCell id="1x29o_3ZwKhWgOv2N2SG-5" value="" style="html=1;points=[[0,0,0,0,5],[0,1,0,0,-5],[1,0,0,0,5],[1,1,0,0,-5]];perimeter=orthogonalPerimeter;outlineConnect=0;targetShapes=umlLifeline;portConstraint=eastwest;newEdgeStyle={&quot;curved&quot;:0,&quot;rounded&quot;:0};fontFamily=宋体;fontSize=14;" parent="1x29o_3ZwKhWgOv2N2SG-3" vertex="1">
          <mxGeometry x="35" y="50" width="10" height="380" as="geometry" />
        </mxCell>
        <mxCell id="1x29o_3ZwKhWgOv2N2SG-6" value="ServiceImpl" style="shape=umlLifeline;perimeter=lifelinePerimeter;whiteSpace=wrap;html=1;container=1;dropTarget=0;collapsible=0;recursiveResize=0;outlineConnect=0;portConstraint=eastwest;newEdgeStyle={&quot;curved&quot;:0,&quot;rounded&quot;:0};fontFamily=宋体;fontSize=14;" parent="1" vertex="1">
          <mxGeometry x="310" y="50" width="80" height="460" as="geometry" />
        </mxCell>
        <mxCell id="1x29o_3ZwKhWgOv2N2SG-7" value="" style="html=1;points=[[0,0,0,0,5],[0,1,0,0,-5],[1,0,0,0,5],[1,1,0,0,-5]];perimeter=orthogonalPerimeter;outlineConnect=0;targetShapes=umlLifeline;portConstraint=eastwest;newEdgeStyle={&quot;curved&quot;:0,&quot;rounded&quot;:0};fontFamily=宋体;fontSize=14;" parent="1x29o_3ZwKhWgOv2N2SG-6" vertex="1">
          <mxGeometry x="35" y="50" width="10" height="380" as="geometry" />
        </mxCell>
        <mxCell id="1x29o_3ZwKhWgOv2N2SG-8" value="数据库" style="shape=umlLifeline;perimeter=lifelinePerimeter;whiteSpace=wrap;html=1;container=1;dropTarget=0;collapsible=0;recursiveResize=0;outlineConnect=0;portConstraint=eastwest;newEdgeStyle={&quot;curved&quot;:0,&quot;rounded&quot;:0};fontFamily=宋体;fontSize=14;" parent="1" vertex="1">
          <mxGeometry x="465" y="50" width="80" height="460" as="geometry" />
        </mxCell>
        <mxCell id="1x29o_3ZwKhWgOv2N2SG-9" value="" style="html=1;points=[[0,0,0,0,5],[0,1,0,0,-5],[1,0,0,0,5],[1,1,0,0,-5]];perimeter=orthogonalPerimeter;outlineConnect=0;targetShapes=umlLifeline;portConstraint=eastwest;newEdgeStyle={&quot;curved&quot;:0,&quot;rounded&quot;:0};fontFamily=宋体;fontSize=14;" parent="1x29o_3ZwKhWgOv2N2SG-8" vertex="1">
          <mxGeometry x="35" y="50" width="10" height="380" as="geometry" />
        </mxCell>
        <mxCell id="1x29o_3ZwKhWgOv2N2SG-14" value="" style="endArrow=classic;html=1;rounded=0;fontSize=14;fontFamily=宋体;" parent="1" edge="1">
          <mxGeometry width="50" height="50" relative="1" as="geometry">
            <mxPoint x="205" y="150" as="sourcePoint" />
            <mxPoint x="345.5" y="150" as="targetPoint" />
          </mxGeometry>
        </mxCell>
        <mxCell id="1x29o_3ZwKhWgOv2N2SG-15" value="调用getList方法" style="text;html=1;align=center;verticalAlign=middle;whiteSpace=wrap;rounded=0;fontSize=14;fontFamily=宋体;" parent="1" vertex="1">
          <mxGeometry x="222" y="120" width="110" height="26" as="geometry" />
        </mxCell>
        <mxCell id="1x29o_3ZwKhWgOv2N2SG-49" value="" style="group" parent="1" vertex="1" connectable="0">
          <mxGeometry x="354" y="207" width="145" height="26" as="geometry" />
        </mxCell>
        <mxCell id="1x29o_3ZwKhWgOv2N2SG-24" value="" style="endArrow=classic;html=1;rounded=0;" parent="1x29o_3ZwKhWgOv2N2SG-49" edge="1">
          <mxGeometry width="50" height="50" relative="1" as="geometry">
            <mxPoint x="145" y="25" as="sourcePoint" />
            <mxPoint y="25" as="targetPoint" />
          </mxGeometry>
        </mxCell>
        <mxCell id="1x29o_3ZwKhWgOv2N2SG-33" value="返回查询数据" style="text;html=1;align=center;verticalAlign=middle;whiteSpace=wrap;rounded=0;fontSize=14;fontFamily=宋体;spacing=0;" parent="1x29o_3ZwKhWgOv2N2SG-49" vertex="1">
          <mxGeometry x="19" width="110" height="26" as="geometry" />
        </mxCell>
        <mxCell id="_Dbj09y_kRg2Y8LJnxWT-1" value="" style="group" parent="1" vertex="1" connectable="0">
          <mxGeometry x="75" y="100.5" width="120" height="35" as="geometry" />
        </mxCell>
        <mxCell id="1x29o_3ZwKhWgOv2N2SG-39" value="发送POST&lt;div&gt;查询请求&lt;/div&gt;" style="text;html=1;align=center;verticalAlign=middle;whiteSpace=wrap;rounded=0;fontFamily=宋体;fontSize=14;fontColor=default;" parent="_Dbj09y_kRg2Y8LJnxWT-1" vertex="1">
          <mxGeometry x="10" width="100" height="30" as="geometry" />
        </mxCell>
        <mxCell id="1x29o_3ZwKhWgOv2N2SG-37" value="" style="endArrow=classic;html=1;rounded=0;" parent="_Dbj09y_kRg2Y8LJnxWT-1" edge="1">
          <mxGeometry width="50" height="50" relative="1" as="geometry">
            <mxPoint y="35" as="sourcePoint" />
            <mxPoint x="120" y="35" as="targetPoint" />
          </mxGeometry>
        </mxCell>
        <mxCell id="_Dbj09y_kRg2Y8LJnxWT-2" value="" style="group" parent="1" vertex="1" connectable="0">
          <mxGeometry x="354" y="173" width="145" height="27" as="geometry" />
        </mxCell>
        <mxCell id="1x29o_3ZwKhWgOv2N2SG-20" value="" style="endArrow=classic;html=1;rounded=0;fontSize=14;fontFamily=宋体;" parent="_Dbj09y_kRg2Y8LJnxWT-2" edge="1">
          <mxGeometry width="50" height="50" relative="1" as="geometry">
            <mxPoint y="27" as="sourcePoint" />
            <mxPoint x="145" y="27" as="targetPoint" />
          </mxGeometry>
        </mxCell>
        <mxCell id="1x29o_3ZwKhWgOv2N2SG-21" value="执行分页查询" style="text;html=1;align=center;verticalAlign=middle;whiteSpace=wrap;rounded=0;fontSize=14;fontFamily=宋体;" parent="_Dbj09y_kRg2Y8LJnxWT-2" vertex="1">
          <mxGeometry x="18" width="110" height="26" as="geometry" />
        </mxCell>
        <mxCell id="_Dbj09y_kRg2Y8LJnxWT-3" value="" style="group" parent="1" vertex="1" connectable="0">
          <mxGeometry x="355.5" y="140" width="145" height="27" as="geometry" />
        </mxCell>
        <mxCell id="_Dbj09y_kRg2Y8LJnxWT-4" value="" style="endArrow=classic;html=1;rounded=0;fontSize=14;fontFamily=宋体;" parent="_Dbj09y_kRg2Y8LJnxWT-3" edge="1">
          <mxGeometry width="50" height="50" relative="1" as="geometry">
            <mxPoint y="27" as="sourcePoint" />
            <mxPoint x="145" y="27" as="targetPoint" />
          </mxGeometry>
        </mxCell>
        <mxCell id="_Dbj09y_kRg2Y8LJnxWT-5" value="构建查询条件" style="text;html=1;align=center;verticalAlign=middle;whiteSpace=wrap;rounded=0;fontSize=14;fontFamily=宋体;" parent="_Dbj09y_kRg2Y8LJnxWT-3" vertex="1">
          <mxGeometry x="18" width="110" height="26" as="geometry" />
        </mxCell>
        <mxCell id="_Dbj09y_kRg2Y8LJnxWT-6" value="数据库中&lt;div&gt;关联表&lt;/div&gt;" style="shape=umlLifeline;perimeter=lifelinePerimeter;whiteSpace=wrap;html=1;container=1;dropTarget=0;collapsible=0;recursiveResize=0;outlineConnect=0;portConstraint=eastwest;newEdgeStyle={&quot;curved&quot;:0,&quot;rounded&quot;:0};fontFamily=宋体;fontSize=14;" parent="1" vertex="1">
          <mxGeometry x="570" y="50" width="80" height="460" as="geometry" />
        </mxCell>
        <mxCell id="_Dbj09y_kRg2Y8LJnxWT-7" value="" style="html=1;points=[[0,0,0,0,5],[0,1,0,0,-5],[1,0,0,0,5],[1,1,0,0,-5]];perimeter=orthogonalPerimeter;outlineConnect=0;targetShapes=umlLifeline;portConstraint=eastwest;newEdgeStyle={&quot;curved&quot;:0,&quot;rounded&quot;:0};fontFamily=宋体;fontSize=14;" parent="_Dbj09y_kRg2Y8LJnxWT-6" vertex="1">
          <mxGeometry x="35" y="50" width="10" height="380" as="geometry" />
        </mxCell>
        <mxCell id="_Dbj09y_kRg2Y8LJnxWT-16" value="" style="group" parent="1" vertex="1" connectable="0">
          <mxGeometry x="355.5" y="242" width="250.5" height="26" as="geometry" />
        </mxCell>
        <mxCell id="_Dbj09y_kRg2Y8LJnxWT-9" value="" style="endArrow=classic;html=1;rounded=0;fontSize=14;fontFamily=宋体;" parent="_Dbj09y_kRg2Y8LJnxWT-16" edge="1">
          <mxGeometry width="50" height="50" relative="1" as="geometry">
            <mxPoint y="24" as="sourcePoint" />
            <mxPoint x="250.5" y="24" as="targetPoint" />
          </mxGeometry>
        </mxCell>
        <mxCell id="_Dbj09y_kRg2Y8LJnxWT-10" value="查询关联数据" style="text;html=1;align=center;verticalAlign=middle;whiteSpace=wrap;rounded=0;fontSize=14;fontFamily=宋体;" parent="_Dbj09y_kRg2Y8LJnxWT-16" vertex="1">
          <mxGeometry x="26" width="110" height="26" as="geometry" />
        </mxCell>
        <mxCell id="_Dbj09y_kRg2Y8LJnxWT-17" value="" style="group" parent="1" vertex="1" connectable="0">
          <mxGeometry x="338.0048275862069" y="278" width="266.9951724137931" height="26" as="geometry" />
        </mxCell>
        <mxCell id="_Dbj09y_kRg2Y8LJnxWT-13" value="" style="endArrow=classic;html=1;rounded=0;" parent="_Dbj09y_kRg2Y8LJnxWT-17" edge="1">
          <mxGeometry width="50" height="50" relative="1" as="geometry">
            <mxPoint x="266.9951724137931" y="26" as="sourcePoint" />
            <mxPoint x="17.995172413793114" y="26" as="targetPoint" />
          </mxGeometry>
        </mxCell>
        <mxCell id="_Dbj09y_kRg2Y8LJnxWT-14" value="返回关联数据" style="text;html=1;align=center;verticalAlign=middle;whiteSpace=wrap;rounded=0;fontSize=14;fontFamily=宋体;spacing=0;" parent="_Dbj09y_kRg2Y8LJnxWT-17" vertex="1">
          <mxGeometry width="194.20689655172413" height="26" as="geometry" />
        </mxCell>
        <mxCell id="_Dbj09y_kRg2Y8LJnxWT-19" value="" style="endArrow=classic;html=1;rounded=0;" parent="1" edge="1">
          <mxGeometry width="50" height="50" relative="1" as="geometry">
            <mxPoint x="356" y="322" as="sourcePoint" />
            <mxPoint x="354" y="362" as="targetPoint" />
            <Array as="points">
              <mxPoint x="416" y="322" />
              <mxPoint x="416" y="362" />
            </Array>
          </mxGeometry>
        </mxCell>
        <mxCell id="_Dbj09y_kRg2Y8LJnxWT-23" value="数据转换处理" style="text;html=1;align=center;verticalAlign=middle;whiteSpace=wrap;rounded=0;fontFamily=宋体;fontSize=14;" parent="1" vertex="1">
          <mxGeometry x="424" y="330" width="60" height="30" as="geometry" />
        </mxCell>
        <mxCell id="_Dbj09y_kRg2Y8LJnxWT-27" value="" style="group" parent="1" vertex="1" connectable="0">
          <mxGeometry x="204" y="360" width="141" height="26" as="geometry" />
        </mxCell>
        <mxCell id="_Dbj09y_kRg2Y8LJnxWT-25" value="" style="endArrow=classic;html=1;rounded=0;" parent="_Dbj09y_kRg2Y8LJnxWT-27" edge="1">
          <mxGeometry width="50" height="50" relative="1" as="geometry">
            <mxPoint x="141" y="25" as="sourcePoint" />
            <mxPoint y="25" as="targetPoint" />
          </mxGeometry>
        </mxCell>
        <mxCell id="_Dbj09y_kRg2Y8LJnxWT-26" value="返回PageResponse" style="text;html=1;align=center;verticalAlign=middle;whiteSpace=wrap;rounded=0;fontSize=14;fontFamily=宋体;spacing=0;" parent="_Dbj09y_kRg2Y8LJnxWT-27" vertex="1">
          <mxGeometry x="10" width="121" height="26" as="geometry" />
        </mxCell>
        <mxCell id="_Dbj09y_kRg2Y8LJnxWT-32" value="" style="endArrow=classic;html=1;rounded=0;" parent="1" edge="1">
          <mxGeometry width="50" height="50" relative="1" as="geometry">
            <mxPoint x="197" y="415" as="sourcePoint" />
            <mxPoint x="75" y="415" as="targetPoint" />
          </mxGeometry>
        </mxCell>
        <mxCell id="_Dbj09y_kRg2Y8LJnxWT-33" value="表格渲染展示" style="text;html=1;align=center;verticalAlign=middle;whiteSpace=wrap;rounded=0;fontSize=14;fontFamily=宋体;spacing=0;" parent="1" vertex="1">
          <mxGeometry x="75" y="386" width="121" height="26" as="geometry" />
        </mxCell>
      </root>
    </mxGraphModel>
  </diagram>
</mxfile>
